<?xml version="1.0" encoding="UTF-8"?>
<!DOCTYPE svg PUBLIC "-//W3C//DTD SVG 1.1//EN" "http://www.w3.org/Graphics/SVG/1.1/DTD/svg11.dtd">
<svg xmlns="http://www.w3.org/2000/svg" version="1.1" width="679px" height="473px" style="shape-rendering:geometricPrecision; text-rendering:geometricPrecision; image-rendering:optimizeQuality; fill-rule:evenodd; clip-rule:evenodd" xmlns:xlink="http://www.w3.org/1999/xlink">
<g><path style="opacity:1" fill="#9a49d3" d="M 256.5,46.5 C 257.483,61.0884 257.816,75.755 257.5,90.5C 254.622,89.63 251.955,88.2967 249.5,86.5C 248.702,86.9569 248.369,87.6236 248.5,88.5C 247.831,187.736 247.164,287.069 246.5,386.5C 203.236,411.906 159.569,436.739 115.5,461C 92.3234,471.825 68.6567,473.158 44.5,465C 25.5074,455.527 12.6741,440.694 6,420.5C 3.00729,410.877 0.840625,401.21 -0.5,391.5C -0.5,287.167 -0.5,182.833 -0.5,78.5C 1.52808,59.255 8.02808,41.5883 19,25.5C 36.4207,4.92081 58.5873,-3.24586 85.5,1C 102.907,4.02523 119.241,10.0252 134.5,19C 172.082,40.7071 209.582,62.5405 247,84.5C 248.332,77.2035 249.665,69.8701 251,62.5C 252.368,56.8928 254.201,51.5595 256.5,46.5 Z"/></g>
<g><path style="opacity:1" fill="#a455da" d="M 332.5,2.5 C 333.209,3.40397 334.209,3.73731 335.5,3.5C 335.5,47.5 335.5,91.5 335.5,135.5C 321.166,128.002 307.166,120.002 293.5,111.5C 294.833,76.8333 294.833,42.1667 293.5,7.5C 302.246,3.39531 311.579,1.39531 321.5,1.5C 325.19,1.69195 328.857,2.02528 332.5,2.5 Z"/></g>
<g><path style="opacity:1" fill="#9e4ed6" d="M 293.5,7.5 C 294.833,42.1667 294.833,76.8333 293.5,111.5C 281.136,104.99 269.136,97.9897 257.5,90.5C 257.816,75.755 257.483,61.0884 256.5,46.5C 263.066,27.9363 275.399,14.9363 293.5,7.5 Z"/></g>
<g><path style="opacity:1" fill="#a95add" d="M 332.5,2.5 C 347.959,4.54054 362.292,9.54054 375.5,17.5C 374.501,64.3304 374.168,111.33 374.5,158.5C 361.3,151.071 348.3,143.404 335.5,135.5C 335.5,91.5 335.5,47.5 335.5,3.5C 334.209,3.73731 333.209,3.40397 332.5,2.5 Z"/></g>
<g><path style="opacity:1" fill="#ae60e0" d="M 375.5,17.5 C 389.168,24.6646 402.501,32.3312 415.5,40.5C 413.505,90.1555 412.838,140.156 413.5,190.5C 402.294,177.625 389.294,166.959 374.5,158.5C 374.168,111.33 374.501,64.3304 375.5,17.5 Z"/></g>
<g><path style="opacity:1" fill="#b266e4" d="M 415.5,40.5 C 427.836,46.9986 439.836,53.9986 451.5,61.5C 450.5,177.999 450.167,294.665 450.5,411.5C 451.5,411.5 452.5,411.5 453.5,411.5C 441.168,419.335 428.502,426.668 415.5,433.5C 413.504,382.844 412.838,331.844 413.5,280.5C 434.805,250.492 434.805,220.492 413.5,190.5C 412.838,140.156 413.505,90.1555 415.5,40.5 Z"/></g>
<g><path style="opacity:1" fill="#b66ae6" d="M 451.5,61.5 C 457.83,64.3296 463.83,67.663 469.5,71.5C 468.167,126.329 467.5,181.496 467.5,237C 467.5,292.334 467.833,347.501 468.5,402.5C 464.005,406.251 459.005,409.251 453.5,411.5C 452.5,411.5 451.5,411.5 450.5,411.5C 450.167,294.665 450.5,177.999 451.5,61.5 Z"/></g>
<g><path style="opacity:1" fill="#b96de8" d="M 469.5,71.5 C 478.634,76.2342 487.634,81.2342 496.5,86.5C 497.495,185.793 497.829,285.126 497.5,384.5C 498.5,384.5 499.5,384.5 500.5,384.5C 490.165,391.003 479.498,397.003 468.5,402.5C 467.833,347.501 467.5,292.334 467.5,237C 467.5,181.496 468.167,126.329 469.5,71.5 Z"/></g>
<g><path style="opacity:1" fill="#633d8c" d="M 257.5,90.5 C 269.136,97.9897 281.136,104.99 293.5,111.5C 307.166,120.002 321.166,128.002 335.5,135.5C 348.3,143.404 361.3,151.071 374.5,158.5C 389.294,166.959 402.294,177.625 413.5,190.5C 434.805,220.492 434.805,250.492 413.5,280.5C 405.16,288.84 396.493,296.84 387.5,304.5C 374.994,311.585 362.66,318.918 350.5,326.5C 331.001,336.746 312.001,347.746 293.5,359.5C 278.366,367.568 263.366,375.901 248.5,384.5C 248.5,285.833 248.5,187.167 248.5,88.5C 248.369,87.6236 248.702,86.9569 249.5,86.5C 251.955,88.2967 254.622,89.63 257.5,90.5 Z"/></g>
<g><path style="opacity:1" fill="#bd73eb" d="M 496.5,86.5 C 510.536,94.848 524.536,103.181 538.5,111.5C 537.167,152.995 536.5,194.828 536.5,237C 536.5,279.172 537.167,321.005 538.5,362.5C 526.114,370.197 513.447,377.53 500.5,384.5C 499.5,384.5 498.5,384.5 497.5,384.5C 497.829,285.126 497.495,185.793 496.5,86.5 Z"/></g>
<g><path style="opacity:1" fill="#6c3f98" d="M 248.5,88.5 C 248.5,187.167 248.5,285.833 248.5,384.5C 248.5,386.5 248.5,388.5 248.5,390.5C 247.833,389.167 247.167,387.833 246.5,386.5C 247.164,287.069 247.831,187.736 248.5,88.5 Z"/></g>
<g><path style="opacity:1" fill="#c279ee" d="M 538.5,111.5 C 552.168,118.665 565.501,126.331 578.5,134.5C 577.167,168.327 576.5,202.493 576.5,237C 576.5,271.507 577.167,305.673 578.5,339.5C 565.528,347.657 552.195,355.324 538.5,362.5C 537.167,321.005 536.5,279.172 536.5,237C 536.5,194.828 537.167,152.995 538.5,111.5 Z"/></g>
<g><path style="opacity:1" fill="#c77ef1" d="M 578.5,134.5 C 588.668,139.413 598.334,145.08 607.5,151.5C 606.417,151.461 605.417,151.127 604.5,150.5C 604.167,179.333 603.833,208.167 603.5,237C 603.5,266.174 604.167,295.008 605.5,323.5C 596.701,329.07 587.701,334.404 578.5,339.5C 577.167,305.673 576.5,271.507 576.5,237C 576.5,202.493 577.167,168.327 578.5,134.5 Z"/></g>
<g><path style="opacity:1" fill="#cb83f4" d="M 607.5,151.5 C 622.187,158.206 635.52,166.873 647.5,177.5C 645.956,177.297 644.622,176.63 643.5,175.5C 643.167,196 642.833,216.5 642.5,237C 642.5,257.844 643.167,278.344 644.5,298.5C 632.696,308.576 619.696,316.91 605.5,323.5C 604.167,295.008 603.5,266.174 603.5,237C 603.833,208.167 604.167,179.333 604.5,150.5C 605.417,151.127 606.417,151.461 607.5,151.5 Z"/></g>
<g><path style="opacity:1" fill="#ce87f6" d="M 647.5,177.5 C 665.141,191.786 675.474,210.119 678.5,232.5C 678.5,235.5 678.5,238.5 678.5,241.5C 675.133,265.231 663.8,284.231 644.5,298.5C 643.167,278.344 642.5,257.844 642.5,237C 642.833,216.5 643.167,196 643.5,175.5C 644.622,176.63 645.956,177.297 647.5,177.5 Z"/></g>
<g><path style="opacity:1" fill="#ae61e1" d="M 413.5,280.5 C 412.838,331.844 413.504,382.844 415.5,433.5C 407.168,439.002 398.501,444.002 389.5,448.5C 387.505,400.845 386.838,352.845 387.5,304.5C 396.493,296.84 405.16,288.84 413.5,280.5 Z"/></g>
<g><path style="opacity:1" fill="#aa5cde" d="M 387.5,304.5 C 386.838,352.845 387.505,400.845 389.5,448.5C 377.033,457.231 363.366,463.564 348.5,467.5C 350.487,420.718 351.154,373.718 350.5,326.5C 362.66,318.918 374.994,311.585 387.5,304.5 Z"/></g>
<g><path style="opacity:1" fill="#a556da" d="M 350.5,326.5 C 351.154,373.718 350.487,420.718 348.5,467.5C 340.343,470.137 332.01,471.803 323.5,472.5C 321.167,472.5 318.833,472.5 316.5,472.5C 307.797,471.574 299.464,469.24 291.5,465.5C 292.5,465.5 293.5,465.5 294.5,465.5C 294.832,429.996 294.498,394.663 293.5,359.5C 312.001,347.746 331.001,336.746 350.5,326.5 Z"/></g>
<g><path style="opacity:1" fill="#9e4ed5" d="M 293.5,359.5 C 294.498,394.663 294.832,429.996 294.5,465.5C 293.5,465.5 292.5,465.5 291.5,465.5C 278.127,459.719 267.96,450.385 261,437.5C 253.237,422.781 249.07,407.114 248.5,390.5C 248.5,388.5 248.5,386.5 248.5,384.5C 263.366,375.901 278.366,367.568 293.5,359.5 Z"/></g>
</svg>
